<?xml version="1.0" encoding="UTF-8"?>
<svg width="31px" height="31px" viewBox="0 0 31 31" version="1.1" xmlns="http://www.w3.org/2000/svg" xmlns:xlink="http://www.w3.org/1999/xlink">
    <!-- Generator: Sketch 51 (57462) - http://www.bohemiancoding.com/sketch -->
    <title>ico-government</title>
    <desc>Created with Sketch.</desc>
    <defs>
        <linearGradient x1="-1488.64746%" y1="576.21582%" x2="194.335938%" y2="9.03808594%" id="linearGradient-1">
            <stop stop-color="#A159FF" offset="0%"></stop>
            <stop stop-color="#985DFE" offset="11.88%"></stop>
            <stop stop-color="#8069FB" offset="31.1%"></stop>
            <stop stop-color="#597DF6" offset="55.24%"></stop>
            <stop stop-color="#2498EF" offset="83.09%"></stop>
            <stop stop-color="#00AAEA" offset="100%"></stop>
        </linearGradient>
        <linearGradient x1="-59.2459542%" y1="410.172526%" x2="102.607073%" y2="22.4568685%" id="linearGradient-2">
            <stop stop-color="#A159FF" offset="0%"></stop>
            <stop stop-color="#985DFE" offset="11.88%"></stop>
            <stop stop-color="#8069FB" offset="31.1%"></stop>
            <stop stop-color="#597DF6" offset="55.24%"></stop>
            <stop stop-color="#2498EF" offset="83.09%"></stop>
            <stop stop-color="#00AAEA" offset="100%"></stop>
        </linearGradient>
        <linearGradient x1="-17.5954183%" y1="459.552002%" x2="100%" y2="-47.845459%" id="linearGradient-3">
            <stop stop-color="#A159FF" offset="0%"></stop>
            <stop stop-color="#985DFE" offset="11.88%"></stop>
            <stop stop-color="#8069FB" offset="31.1%"></stop>
            <stop stop-color="#597DF6" offset="55.24%"></stop>
            <stop stop-color="#2498EF" offset="83.09%"></stop>
            <stop stop-color="#00AAEA" offset="100%"></stop>
        </linearGradient>
        <linearGradient x1="-203.601074%" y1="347.159831%" x2="1237.1582%" y2="-475.748698%" id="linearGradient-4">
            <stop stop-color="#A159FF" offset="0%"></stop>
            <stop stop-color="#985DFE" offset="11.88%"></stop>
            <stop stop-color="#8069FB" offset="31.1%"></stop>
            <stop stop-color="#597DF6" offset="55.24%"></stop>
            <stop stop-color="#2498EF" offset="83.09%"></stop>
            <stop stop-color="#00AAEA" offset="100%"></stop>
        </linearGradient>
        <linearGradient x1="-357.287598%" y1="311.865234%" x2="1025.01221%" y2="-605.281576%" id="linearGradient-5">
            <stop stop-color="#A159FF" offset="0%"></stop>
            <stop stop-color="#985DFE" offset="11.88%"></stop>
            <stop stop-color="#8069FB" offset="31.1%"></stop>
            <stop stop-color="#597DF6" offset="55.24%"></stop>
            <stop stop-color="#2498EF" offset="83.09%"></stop>
            <stop stop-color="#00AAEA" offset="100%"></stop>
        </linearGradient>
        <linearGradient x1="-1066.4917%" y1="325.284831%" x2="384.338379%" y2="-659.781901%" id="linearGradient-6">
            <stop stop-color="#A159FF" offset="0%"></stop>
            <stop stop-color="#985DFE" offset="11.88%"></stop>
            <stop stop-color="#8069FB" offset="31.1%"></stop>
            <stop stop-color="#597DF6" offset="55.24%"></stop>
            <stop stop-color="#2498EF" offset="83.09%"></stop>
            <stop stop-color="#00AAEA" offset="100%"></stop>
        </linearGradient>
        <linearGradient x1="-1233.03223%" y1="328.035482%" x2="126.342773%" y2="-110.335286%" id="linearGradient-7">
            <stop stop-color="#A159FF" offset="0%"></stop>
            <stop stop-color="#985DFE" offset="11.88%"></stop>
            <stop stop-color="#8069FB" offset="31.1%"></stop>
            <stop stop-color="#597DF6" offset="55.24%"></stop>
            <stop stop-color="#2498EF" offset="83.09%"></stop>
            <stop stop-color="#00AAEA" offset="100%"></stop>
        </linearGradient>
        <linearGradient x1="-2.87496633%" y1="105.554199%" x2="93.2078421%" y2="-54.0858686%" id="linearGradient-8">
            <stop stop-color="#A159FF" offset="0%"></stop>
            <stop stop-color="#985DFE" offset="11.88%"></stop>
            <stop stop-color="#8069FB" offset="31.1%"></stop>
            <stop stop-color="#597DF6" offset="55.24%"></stop>
            <stop stop-color="#2498EF" offset="83.09%"></stop>
            <stop stop-color="#03A9EA" offset="100%"></stop>
            <stop stop-color="#00AAEA" offset="100%"></stop>
        </linearGradient>
    </defs>
    <g id="Homepage" stroke="none" stroke-width="1" fill="none" fill-rule="evenodd">
        <g id="Cmp-Home-page-v5" transform="translate(-536.000000, -4772.000000)">
            <g id="Writer-Specialization" transform="translate(169.000000, 4400.000000)">
                <g id="Row1" transform="translate(0.000000, 169.000000)">
                    <g id="Category-group2" transform="translate(367.000000, 0.000000)">
                        <g id="ico-government" transform="translate(1.000000, 204.000000)">
                            <path d="M13,0 C13,-0.55228475 13.4477153,-1 14,-1 C14.5522847,-1 15,-0.55228475 15,0 L15,5 C15,5.55228475 14.5522847,6 14,6 C13.4477153,6 13,5.55228475 13,5 L13,0 Z" id="Shape" fill="url(#linearGradient-1)" fill-rule="nonzero"></path>
                            <path d="M7,11 C7,7.1 10.7,5 14,5 C17.3,5 21,7.1 21,11 L7,11 Z" id="Shape" stroke="url(#linearGradient-2)" stroke-width="2"></path>
                            <path d="M25,15 L4,15 C3.4,15 2.5,15 2.5,15 L2.5,11.78 C2.5,11.2925 2.9,11 3.5,11 L25.5,11 C26.1,11 26.5,11.2925 26.5,11.78 L26.5,15 C26.5,15 25.6,15 25,15 Z" id="Shape" stroke="url(#linearGradient-3)" stroke-width="2"></path>
                            <path d="M3,20 C3,19.4477153 3.44771525,19 4,19 C4.55228475,19 5,19.4477153 5,20 L5,23 C5,23.5522847 4.55228475,24 4,24 C3.44771525,24 3,23.5522847 3,23 L3,20 Z" id="Shape" fill="url(#linearGradient-4)" fill-rule="nonzero"></path>
                            <path d="M7,20 C7,19.4477153 7.44771525,19 8,19 C8.55228475,19 9,19.4477153 9,20 L9,23 C9,23.5522847 8.55228475,24 8,24 C7.44771525,24 7,23.5522847 7,23 L7,20 Z" id="Shape" fill="url(#linearGradient-5)" fill-rule="nonzero"></path>
                            <path d="M20,20 C20,19.4477153 20.4477153,19 21,19 C21.5522847,19 22,19.4477153 22,20 L22,23 C22,23.5522847 21.5522847,24 21,24 C20.4477153,24 20,23.5522847 20,23 L20,20 Z" id="Shape" fill="url(#linearGradient-6)" fill-rule="nonzero"></path>
                            <path d="M24,20 C24,19.4477153 24.4477153,19 25,19 C25.5522847,19 26,19.4477153 26,20 L26,23 C26,23.5522847 25.5522847,24 25,24 C24.4477153,24 24,23.5522847 24,23 L24,20 Z" id="Shape" fill="url(#linearGradient-7)" fill-rule="nonzero"></path>
                            <path d="M-1.13686838e-13,16 L-1.13686838e-13,28 C-1.13686838e-13,28.6 0.4,29 1,29 L11,29 C11.6,29 12,28.6 12,28 L12,23 C12,22.4 12.4,22 13,22 L16,22 C16.6,22 17,22.4 17,23 L17,28 C17,28.6 17.4,29 18,29 L28,28.9 C28.6,28.9 29,28.5 29,27.9 L29,16 C29,15.4 28.6,15 28,15 L1,15 C0.4,15 -1.13686838e-13,15.4 -1.13686838e-13,16 Z" id="Shape" stroke="url(#linearGradient-8)" stroke-width="2"></path>
                        </g>
                    </g>
                </g>
            </g>
        </g>
    </g>
</svg>