<?xml version="1.0" encoding="UTF-8"?>
<svg width="25px" height="30px" viewBox="0 0 25 30" version="1.1" xmlns="http://www.w3.org/2000/svg" xmlns:xlink="http://www.w3.org/1999/xlink">
    <!-- Generator: Sketch 50.2 (55047) - http://www.bohemiancoding.com/sketch -->
    <title>ico-sales&amp;marketing</title>
    <desc>Created with Sketch.</desc>
    <defs>
        <linearGradient x1="-42.758%" y1="88.7791667%" x2="490.191732%" y2="-134.206321%" id="linearGradient-1">
            <stop stop-color="#A159FF" offset="0%"></stop>
            <stop stop-color="#985DFE" offset="11.88%"></stop>
            <stop stop-color="#8069FB" offset="31.1%"></stop>
            <stop stop-color="#597DF6" offset="55.24%"></stop>
            <stop stop-color="#2498EF" offset="83.09%"></stop>
            <stop stop-color="#00AAEA" offset="100%"></stop>
        </linearGradient>
        <linearGradient x1="-210.073242%" y1="108.964591%" x2="307.69043%" y2="-64.6803231%" id="linearGradient-2">
            <stop stop-color="#A159FF" offset="0%"></stop>
            <stop stop-color="#985DFE" offset="11.88%"></stop>
            <stop stop-color="#8069FB" offset="31.1%"></stop>
            <stop stop-color="#597DF6" offset="55.24%"></stop>
            <stop stop-color="#2498EF" offset="83.09%"></stop>
            <stop stop-color="#00AAEA" offset="100%"></stop>
        </linearGradient>
        <linearGradient x1="-393.774414%" y1="106.767835%" x2="124.985352%" y2="-7.30622944%" id="linearGradient-3">
            <stop stop-color="#A159FF" offset="0%"></stop>
            <stop stop-color="#985DFE" offset="11.88%"></stop>
            <stop stop-color="#8069FB" offset="31.1%"></stop>
            <stop stop-color="#597DF6" offset="55.24%"></stop>
            <stop stop-color="#2498EF" offset="83.09%"></stop>
            <stop stop-color="#00AAEA" offset="100%"></stop>
        </linearGradient>
        <linearGradient x1="10.5418182%" y1="136.964%" x2="89.6972727%" y2="-37.178%" id="linearGradient-4">
            <stop stop-color="#A159FF" offset="0%"></stop>
            <stop stop-color="#985DFE" offset="11.88%"></stop>
            <stop stop-color="#8069FB" offset="31.1%"></stop>
            <stop stop-color="#597DF6" offset="55.24%"></stop>
            <stop stop-color="#2498EF" offset="83.09%"></stop>
            <stop stop-color="#00AAEA" offset="100%"></stop>
        </linearGradient>
        <linearGradient x1="-588.763428%" y1="697.821045%" x2="186.083984%" y2="-16.8029785%" id="linearGradient-5">
            <stop stop-color="#A159FF" offset="0%"></stop>
            <stop stop-color="#9B5CFE" offset="0.7300198%"></stop>
            <stop stop-color="#776EFA" offset="5.907726%"></stop>
            <stop stop-color="#577EF5" offset="11.73%"></stop>
            <stop stop-color="#3B8CF2" offset="18.16%"></stop>
            <stop stop-color="#2597EF" offset="25.43%"></stop>
            <stop stop-color="#14A0ED" offset="33.91%"></stop>
            <stop stop-color="#09A6EB" offset="44.41%"></stop>
            <stop stop-color="#02A9EA" offset="59.13%"></stop>
            <stop stop-color="#00AAEA" offset="100%"></stop>
        </linearGradient>
    </defs>
    <g id="Homepage" stroke="none" stroke-width="1" fill="none" fill-rule="evenodd">
        <g id="Cmp-Home-page-v5" transform="translate(-910.000000, -4899.000000)" stroke-width="2">
            <g id="Writer-Specialization" transform="translate(169.000000, 4400.000000)">
                <g id="Row1" transform="translate(0.000000, 169.000000)">
                    <g id="Category-group3" transform="translate(738.000000, 1.000000)">
                        <g id="ico-sales&amp;marketing" transform="translate(4.000000, 330.000000)">
                            <path d="M4,28 L0.983333333,28 C0.383333333,28 0,27.55 0,27 L0,18 C0,17.45 0.383333333,17 0.983333333,17 L3.98333333,17 C4.58333333,17 5,17.45 5,18 L5,27 C5,27.4583333 4.6,28 4,28 Z" id="Shape" stroke="url(#linearGradient-1)"></path>
                            <path d="M13,28 L10,28 C9.4,28 9,27.5612903 9,27 L9,14 C9,13.4387097 9.4,13.0322581 10,13.0322581 L13,13.0322581 C13.6,13.0322581 14,13.4387097 14,14 L14,27 C14,27.4677419 13.6,28 13,28 Z" id="Shape" stroke="url(#linearGradient-2)"></path>
                            <path d="M22,28 L19,28 C18.4,28 18,27.62 18,27.05 L18,9.95 C18,9.38 18.4,9 19,9 L22,9 C22.6,9 23,9.38 23,9.95 L23,27.05 C23,27.525 22.6,28 22,28 Z" id="Shape" stroke="url(#linearGradient-3)"></path>
                            <path d="M0,11 C0,11 13.2666667,9.70967742 22.0833333,1" id="Shape" stroke="url(#linearGradient-4)" stroke-linecap="round"></path>
                            <polyline id="Shape" stroke="url(#linearGradient-5)" stroke-linecap="round" points="19 0 23 0 23 4"></polyline>
                        </g>
                    </g>
                </g>
            </g>
        </g>
    </g>
</svg>